<svg
        width="1024pt"
        height="1024pt"
        viewBox="0 0 1024 1024"
        version="1.1"
        xmlns="http://www.w3.org/2000/svg"
>
        <g id="#ffffffff" fill="#ffffff" opacity="1.00">
          <path d=" M 255.56 168.51 C 268.75 159.23 285.02 155.13 301.00 154.87 C 336.66 154.86 372.33 154.91 407.99 154.88 C 424.72 154.24 440.33 161.21 456.01 166.01 C 499.38 181.41 542.85 196.53 586.28 211.77 C 602.75 217.87 619.35 223.62 636.08 228.97 C 659.63 237.02 683.31 244.69 707.17 251.78 C 727.93 257.61 748.75 263.27 769.39 269.53 C 777.22 271.95 785.19 273.98 792.75 277.17 C 804.22 281.64 814.23 290.53 819.01 301.98 C 821.53 308.57 823.04 315.68 822.54 322.76 C 821.66 329.97 819.01 336.80 816.66 343.62 C 808.39 368.66 800.96 393.99 791.87 418.75 C 786.92 418.95 781.97 419.17 777.03 419.47 C 778.45 412.98 779.22 406.27 778.23 399.66 C 777.06 386.99 773.14 374.84 769.09 362.86 C 767.41 359.35 765.81 355.24 767.41 351.41 C 772.68 345.36 780.01 341.80 786.79 337.76 C 792.33 334.28 798.27 331.46 803.72 327.82 C 805.97 326.34 806.54 323.46 806.79 320.96 C 807.58 312.29 803.25 303.77 796.72 298.25 C 788.60 291.11 777.78 288.70 767.85 285.19 C 757.84 281.68 747.59 278.93 737.26 276.56 C 682.09 262.01 623.79 263.27 568.06 273.96 C 537.05 280.31 506.42 289.33 477.64 302.61 C 464.31 308.61 451.80 318.72 447.04 333.00 C 443.92 343.05 440.76 353.09 438.25 363.31 C 432.11 381.74 426.84 400.45 421.04 418.99 C 420.12 422.10 416.02 421.62 413.91 420.08 C 397.38 409.59 380.93 398.96 364.17 388.83 C 356.16 383.81 347.96 379.10 340.04 373.94 C 327.32 365.55 314.05 358.04 301.31 349.68 C 280.97 337.04 260.63 324.42 240.31 311.75 C 228.74 304.60 216.87 297.86 205.87 289.83 L 205.57 288.98 C 208.07 275.64 210.83 262.34 213.04 248.94 C 215.99 236.06 217.40 222.72 222.62 210.46 C 229.54 193.89 240.53 178.60 255.56 168.51 Z" />
          <path d=" M 590.69 291.21 C 596.20 290.70 601.58 292.09 607.05 292.52 C 610.80 292.84 614.42 293.94 617.99 295.08 C 616.18 302.38 613.48 309.44 611.85 316.81 C 612.86 317.30 613.89 317.78 614.92 318.27 C 618.98 311.45 620.23 303.41 623.90 296.39 C 626.59 297.07 629.27 297.91 631.72 299.27 C 636.37 301.84 641.66 303.11 646.03 306.22 C 645.67 307.68 645.51 309.25 644.63 310.51 C 639.10 318.42 635.54 327.45 630.85 335.84 C 633.82 337.17 636.56 338.97 639.64 340.08 C 644.64 331.51 649.28 322.73 654.06 314.06 C 655.43 311.06 658.91 312.53 660.63 314.35 C 665.77 319.41 671.41 323.94 676.45 329.11 C 671.08 335.71 664.81 341.51 659.48 348.15 C 660.64 348.90 662.08 351.30 663.53 349.62 C 669.15 343.95 674.46 337.97 679.94 332.16 C 685.99 338.96 691.93 345.96 696.27 354.03 C 687.11 360.44 677.46 366.14 668.15 372.31 C 668.83 375.52 671.86 378.09 673.82 380.77 C 683.26 375.46 692.25 369.38 701.64 363.97 C 705.49 372.34 709.35 380.81 711.28 389.88 L 710.88 390.64 C 703.03 393.36 694.56 394.96 687.25 398.84 C 687.43 399.40 687.78 400.51 687.96 401.07 C 696.34 400.47 704.39 397.44 712.46 395.23 C 714.39 404.95 716.07 414.84 715.88 424.78 C 705.55 424.71 695.22 424.64 684.89 424.71 C 684.84 428.22 684.83 431.73 684.89 435.24 C 695.20 435.45 705.52 435.30 715.83 435.31 C 715.03 445.06 714.47 454.95 711.91 464.44 C 703.52 462.87 695.49 459.57 686.99 458.63 C 686.93 459.48 686.80 461.18 686.74 462.03 C 694.10 464.59 701.61 466.73 709.04 469.12 C 711.02 469.37 710.09 471.54 709.82 472.76 C 707.24 480.90 704.51 489.10 700.20 496.51 C 690.65 490.53 681.20 484.40 672.13 477.71 C 671.36 479.29 670.61 480.89 669.83 482.46 C 663.21 476.31 656.12 470.73 649.32 464.79 C 654.49 453.57 658.02 441.41 657.74 428.96 C 656.98 411.26 650.90 393.39 638.80 380.20 C 626.72 366.38 609.04 357.90 590.84 356.19 C 573.41 355.06 554.73 359.64 541.72 371.79 C 530.98 363.06 520.39 354.14 510.11 344.86 C 504.36 340.44 498.82 335.69 494.27 330.01 C 495.84 327.71 497.50 325.45 499.66 323.68 C 504.16 319.88 507.84 314.64 513.74 312.90 C 515.66 315.17 517.27 317.68 518.64 320.33 C 522.35 327.50 526.91 334.18 531.24 340.99 C 534.34 339.32 537.31 337.43 540.40 335.74 C 537.73 330.80 534.50 326.18 531.77 321.27 C 528.99 316.49 524.97 312.08 524.06 306.47 C 531.58 303.43 538.85 299.74 546.55 297.18 C 549.02 304.42 552.17 311.39 555.08 318.46 C 556.63 318.33 559.14 318.82 559.55 316.71 C 556.23 309.92 554.72 302.43 553.08 295.10 C 561.40 292.45 570.15 290.80 578.90 291.58 C 579.46 302.67 579.20 313.79 579.27 324.89 C 583.02 324.85 586.80 325.03 590.55 324.59 C 590.14 317.06 590.78 309.53 590.53 302.00 C 590.37 298.40 590.44 294.80 590.69 291.21 Z"/>
          <path d=" M 680.71 293.17 C 688.36 292.97 696.04 292.15 703.65 293.47 C 708.60 296.70 712.79 300.92 717.33 304.67 C 726.56 315.07 734.98 326.33 741.11 338.87 C 746.79 350.20 752.92 361.49 755.99 373.90 C 765.23 405.15 765.05 438.69 758.52 470.45 C 750.56 508.75 730.46 544.23 702.26 571.27 C 673.41 598.96 634.89 616.41 595.04 619.88 C 579.87 620.60 564.52 620.47 549.60 617.31 C 532.33 613.53 515.33 607.89 500.00 598.97 C 467.71 580.48 441.97 551.16 426.83 517.25 C 417.46 496.83 412.06 474.48 411.69 452.00 C 411.97 446.04 411.01 440.05 412.22 434.15 C 417.68 434.15 423.19 433.61 428.62 434.35 C 428.87 442.95 428.06 451.68 429.95 460.16 C 431.91 466.09 431.97 472.52 434.56 478.28 C 439.27 494.17 445.19 509.86 454.01 523.98 C 462.29 538.46 473.50 551.05 485.85 562.18 C 519.49 591.52 566.87 603.78 610.62 595.35 C 627.03 592.48 642.57 586.03 657.21 578.21 C 673.73 569.16 687.99 556.52 700.49 542.53 C 712.51 528.44 722.62 512.61 729.38 495.33 C 737.50 475.77 741.51 454.66 742.41 433.55 C 743.21 414.82 741.19 395.94 735.95 377.92 C 729.98 356.86 720.62 336.42 706.51 319.53 C 700.31 311.16 692.96 303.64 684.52 297.52 C 682.97 296.35 680.98 295.31 680.71 293.17 Z" />
          <path d=" M 490.30 333.17 C 496.47 338.87 501.29 345.83 506.86 352.09 C 510.16 356.75 514.15 360.85 517.51 365.47 C 521.66 371.06 525.92 376.56 530.38 381.90 C 524.69 389.40 519.38 397.40 516.61 406.48 C 511.79 420.92 511.37 436.76 515.37 451.45 C 520.51 469.50 532.54 485.75 549.04 494.94 C 564.26 503.08 582.34 505.98 599.27 502.38 C 616.26 498.91 631.82 488.89 641.82 474.70 C 642.53 473.24 644.09 474.49 645.09 474.84 C 651.97 478.25 658.82 481.73 665.63 485.29 C 667.07 485.85 666.89 487.58 667.26 488.82 C 672.52 490.86 677.17 494.12 681.97 497.05 C 686.44 500.02 691.09 502.77 695.28 506.15 C 690.32 513.74 684.79 520.99 678.78 527.77 C 672.86 522.13 667.73 515.70 661.72 510.15 C 660.45 510.11 659.70 511.47 658.70 512.05 C 663.99 518.57 670.18 524.33 675.26 531.04 C 669.55 537.21 663.22 542.86 656.20 547.49 C 650.39 538.11 645.39 528.24 639.29 519.05 C 636.43 521.03 633.46 522.84 630.56 524.75 C 636.41 533.91 641.47 543.54 646.52 553.15 C 638.89 557.50 630.87 561.60 622.20 563.35 C 620.30 555.20 617.71 547.23 615.25 539.24 C 614.03 539.87 612.83 540.50 611.63 541.14 C 613.55 549.05 616.38 556.80 617.19 564.95 C 608.50 567.34 599.47 569.23 590.43 568.94 C 590.69 557.54 590.11 546.14 590.56 534.75 C 586.81 535.05 583.06 535.33 579.31 535.41 C 579.09 546.83 579.28 558.26 579.11 569.68 C 570.35 568.56 561.42 568.26 552.86 565.97 C 554.41 557.58 556.03 549.21 558.15 540.95 C 557.11 540.51 556.07 540.10 555.03 539.71 C 552.01 547.79 550.08 556.22 547.92 564.55 C 539.64 561.91 531.71 558.32 523.85 554.64 C 524.15 553.40 524.47 552.17 525.05 551.03 C 529.51 542.10 534.80 533.62 539.60 524.88 C 536.66 523.17 533.81 521.31 531.13 519.22 C 525.17 528.88 519.92 538.95 514.16 548.72 C 507.09 544.77 501.17 539.15 495.64 533.31 C 495.15 532.60 493.68 531.59 494.78 530.73 C 499.96 525.07 505.57 519.80 510.45 513.87 C 509.70 512.93 508.95 512.02 508.18 511.13 C 502.35 516.77 496.48 522.38 490.93 528.30 C 484.67 521.57 479.49 513.87 474.59 506.11 C 484.10 501.17 492.58 494.57 501.81 489.15 C 500.18 486.02 498.37 482.98 496.65 479.90 C 487.23 485.18 478.62 491.79 469.27 497.17 C 466.10 490.38 463.24 483.44 460.65 476.41 C 459.85 474.38 459.54 472.22 459.36 470.06 C 467.23 467.41 475.50 465.77 482.98 462.10 C 482.65 461.13 482.33 460.15 482.02 459.19 C 473.70 460.62 465.80 464.06 457.41 465.01 C 455.38 455.35 454.12 445.56 453.12 435.76 C 463.36 435.31 473.62 435.58 483.87 435.48 C 484.14 431.92 484.12 428.35 484.07 424.78 C 474.15 424.62 464.23 424.91 454.32 424.58 C 453.70 415.35 455.12 406.12 457.12 397.14 C 465.07 398.48 472.73 401.29 480.79 402.08 C 480.82 400.79 480.85 399.50 480.88 398.21 C 473.54 395.48 465.88 393.71 458.42 391.33 C 459.33 386.15 461.54 381.31 463.48 376.45 C 465.16 372.43 466.31 368.12 468.92 364.56 C 478.46 369.24 486.52 376.83 496.74 380.13 C 498.49 377.43 500.22 374.72 501.95 372.01 C 497.51 370.02 493.25 367.63 489.51 364.49 C 484.69 360.93 479.32 358.19 474.40 354.76 C 477.40 348.92 481.86 344.08 485.55 338.69 C 486.97 336.72 488.68 334.98 490.30 333.17 Z" />
          <path d=" M 238.90 334.65 C 244.95 337.50 250.15 341.78 255.96 345.06 C 303.65 373.32 350.30 403.29 397.25 432.75 C 400.88 434.44 399.32 438.93 399.45 442.08 C 397.94 455.20 400.06 468.42 402.75 481.26 C 407.38 501.93 415.48 521.73 425.80 540.20 C 428.88 545.18 431.61 550.37 434.58 555.41 C 439.53 562.46 444.17 569.74 449.44 576.55 C 459.20 587.78 469.08 598.90 478.92 610.06 C 480.76 612.16 482.70 614.24 484.01 616.75 C 474.54 612.67 465.74 607.21 456.64 602.39 C 445.79 597.18 435.23 591.35 425.00 585.00 C 406.66 573.93 388.15 563.14 369.70 552.24 C 353.64 543.24 338.35 532.98 322.68 523.32 C 318.09 520.31 313.11 517.75 309.28 513.73 C 293.55 500.74 279.78 485.24 269.37 467.66 C 260.64 451.86 253.50 435.18 247.97 418.01 C 241.46 395.30 237.61 371.68 238.12 348.00 C 237.99 343.53 238.12 339.06 238.90 334.65 Z" />
          <path d=" M 517.03 356.85 C 522.59 361.30 527.36 366.67 532.98 371.05 C 548.59 383.67 562.87 397.78 577.27 411.72 C 578.16 412.49 578.92 413.51 580.07 413.95 C 582.64 413.34 585.15 412.02 587.88 412.36 C 592.28 413.02 596.88 414.66 599.69 418.32 C 603.46 423.21 604.14 429.78 603.20 435.73 C 611.89 441.30 620.35 447.22 628.79 453.17 C 636.92 458.69 645.05 464.60 651.23 472.34 C 647.27 471.03 643.70 468.84 640.04 466.92 C 625.84 459.32 611.86 451.32 597.92 443.26 C 593.31 446.15 587.59 447.32 582.30 445.79 C 575.63 443.67 570.17 437.20 570.43 430.00 C 570.15 426.90 571.95 424.13 572.14 421.14 C 558.37 405.15 544.25 389.45 531.13 372.92 C 526.69 367.33 521.37 362.49 517.03 356.85 M 584.35 424.24 C 580.04 426.19 579.98 432.70 584.10 434.88 C 587.70 437.47 593.17 434.30 593.08 430.01 C 593.10 425.73 588.33 422.34 584.35 424.24 Z" />
          <path d=" M 388.70 578.68 C 395.65 582.00 401.96 586.50 408.59 590.39 C 415.78 594.46 421.51 600.93 429.58 603.40 C 443.87 611.05 455.51 623.09 464.53 636.44 C 469.07 642.86 472.80 649.83 475.93 657.04 C 477.62 660.88 478.71 665.01 480.97 668.59 C 481.40 658.04 481.75 647.36 480.28 636.87 C 484.86 642.23 487.53 648.90 489.29 655.66 C 491.76 665.23 493.31 675.09 493.19 684.99 C 493.10 694.98 493.26 704.97 493.02 714.95 C 475.71 714.39 458.23 711.99 441.85 706.17 C 430.35 702.40 421.25 693.07 416.06 682.35 C 419.80 684.94 424.30 687.11 428.96 685.86 C 433.84 685.62 436.21 680.87 438.07 677.03 C 442.92 667.40 441.86 656.37 443.34 646.03 C 442.20 631.78 436.86 617.57 426.88 607.14 C 423.30 603.34 417.53 602.02 412.62 603.68 C 408.99 604.84 406.20 607.57 403.32 609.94 C 401.90 602.20 399.40 594.56 395.12 587.91 C 393.14 584.72 390.71 581.84 388.70 578.68 Z" />
          <path d=" M 412.41 616.50 C 417.60 614.80 422.34 619.00 424.77 623.20 C 431.62 634.83 433.49 650.02 427.35 662.35 C 425.55 665.93 422.39 669.66 417.99 669.49 C 412.68 669.27 408.93 664.83 406.38 660.62 C 400.01 649.55 399.18 635.27 404.79 623.72 C 406.42 620.58 408.96 617.64 412.41 616.50 M 414.37 633.06 C 409.63 638.53 410.46 647.72 415.44 652.79 C 417.58 655.08 420.57 652.44 421.14 650.09 C 422.64 645.30 422.27 639.73 419.69 635.37 C 418.69 633.67 416.31 631.40 414.37 633.06 Z" />
          <path d=" M 605.81 639.82 C 609.56 634.37 614.94 630.44 620.02 626.34 C 604.74 644.41 600.77 669.06 601.24 692.04 C 599.55 693.62 597.77 695.10 595.87 696.42 C 595.91 687.25 595.97 678.08 596.08 668.92 C 596.83 658.65 599.41 648.10 605.81 639.82 Z" />
          <path d=" M 501.36 637.73 C 505.75 645.02 506.55 653.71 507.74 661.96 C 509.02 679.70 508.62 697.51 508.86 715.29 C 505.30 715.57 501.73 715.36 498.19 714.94 C 499.44 697.97 498.04 680.89 499.27 663.90 C 500.11 655.19 501.26 646.49 501.36 637.73 Z" />
          <path d=" M 548.00 640.87 C 549.09 642.10 550.62 643.11 551.00 644.82 C 552.14 649.25 554.79 653.31 554.87 657.99 C 554.95 663.35 554.72 668.76 555.81 674.06 C 556.03 686.72 555.91 699.38 555.99 712.05 C 553.03 712.82 549.99 713.08 546.96 713.31 C 547.09 697.86 546.81 682.41 547.29 666.98 C 548.65 658.33 548.00 649.57 548.00 640.87 Z" />
          <path d=" M 563.11 642.63 C 564.43 644.87 566.30 646.97 566.56 649.67 C 567.75 657.79 568.68 665.96 570.32 674.01 C 570.51 685.93 570.56 697.85 570.69 709.77 C 568.19 710.39 565.64 710.77 563.09 711.06 C 562.93 688.25 563.21 665.44 563.11 642.63 Z" />
          <path d=" M 518.01 643.47 C 521.81 649.66 522.73 657.11 523.82 664.16 C 524.93 681.10 524.53 698.10 524.70 715.07 C 521.41 715.27 518.11 715.25 514.82 715.19 C 515.12 695.48 513.79 675.66 516.47 656.07 C 517.04 651.88 517.19 647.63 518.01 643.47 Z" />
          <path d=" M 533.50 647.55 C 538.08 654.41 540.26 662.80 540.16 671.02 C 540.26 685.34 540.46 699.67 540.34 714.00 C 537.15 714.24 533.98 714.58 530.81 714.90 C 530.98 701.59 530.76 688.29 530.98 674.99 C 531.08 665.79 532.69 656.70 533.50 647.55 Z" />
          <path d=" M 579.40 655.98 C 579.47 653.86 578.86 651.07 581.29 650.07 C 581.85 658.03 581.84 666.02 581.87 674.00 C 582.24 684.59 582.28 695.21 581.94 705.81 C 581.10 706.11 580.26 706.42 579.44 706.75 C 578.61 689.83 579.71 672.90 579.40 655.98 Z" />
          <path d=" M 663.80 679.91 C 670.58 678.33 677.44 680.80 683.64 683.37 C 694.95 687.88 704.24 697.09 708.45 708.56 C 712.48 718.19 711.54 728.81 711.72 739.00 C 711.97 775.67 711.70 812.34 711.76 849.01 C 711.73 856.70 711.37 864.76 707.76 871.74 C 703.84 879.74 694.88 884.93 685.96 884.21 C 667.11 882.94 650.01 868.27 646.22 849.69 C 645.28 844.07 645.55 838.34 645.74 832.67 C 650.25 836.69 654.44 841.05 658.63 845.40 C 660.94 847.73 662.81 850.71 666.06 851.84 C 671.26 847.23 676.97 843.17 683.32 840.30 C 685.06 839.27 688.11 838.60 687.58 835.96 C 687.53 805.98 687.73 775.99 687.32 746.02 C 686.48 744.20 684.69 743.07 683.31 741.70 C 675.96 735.42 669.16 728.55 662.00 722.07 C 656.39 723.75 650.84 725.68 645.13 727.00 C 645.25 716.77 644.23 706.23 647.24 696.31 C 649.74 688.70 655.71 681.66 663.80 679.91 Z" />
          <path d=" M 450.85 722.04 C 458.17 724.75 465.54 727.42 473.21 728.93 C 488.89 732.36 505.06 732.40 521.02 731.83 C 537.25 731.21 553.45 728.51 568.81 723.19 C 568.81 726.38 568.99 729.58 568.77 732.77 C 567.55 734.34 565.60 735.10 563.79 735.78 C 556.63 738.21 549.29 740.08 541.93 741.80 C 531.63 742.62 521.38 744.58 511.01 744.27 C 498.88 744.31 486.74 743.35 474.82 741.08 C 466.77 739.26 458.46 737.18 451.62 732.37 C 450.02 729.32 451.12 725.42 450.85 722.04 Z" />
          <path d=" M 607.76 743.78 C 624.10 740.34 640.53 737.30 656.75 733.27 C 661.87 738.84 667.03 744.40 671.78 750.30 C 672.01 772.28 671.74 794.29 671.88 816.29 C 634.40 813.92 597.10 809.37 559.63 806.82 C 559.39 799.57 559.52 792.31 559.75 785.07 C 560.04 784.80 560.62 784.25 560.92 783.98 C 578.08 778.33 595.75 774.37 612.97 768.89 C 617.96 767.04 623.36 766.18 628.11 763.76 C 605.15 762.60 582.14 763.34 559.18 762.05 C 559.17 759.77 559.18 757.51 559.21 755.25 C 575.25 750.85 591.58 747.63 607.76 743.78 Z" />
          <path d=" M 460.26 786.05 C 460.44 775.81 459.94 765.54 460.59 755.33 C 473.71 762.18 488.37 765.58 503.05 766.80 C 514.70 766.34 526.53 767.56 538.00 764.93 C 540.43 764.46 542.79 762.31 545.32 763.58 C 546.58 765.47 546.16 767.83 546.28 769.98 C 546.16 778.35 546.18 786.72 546.18 795.09 C 546.33 797.42 545.21 800.15 542.77 800.82 C 520.97 805.27 497.81 806.46 476.32 799.76 C 471.35 798.03 466.12 796.38 462.00 792.98 C 459.78 791.36 460.37 788.40 460.26 786.05 Z" />
          <path d=" M 459.99 799.74 C 471.82 805.71 484.84 809.26 498.06 810.10 C 514.88 811.57 532.00 810.58 548.36 806.46 C 548.22 807.28 547.93 808.90 547.79 809.71 C 541.00 815.14 532.35 817.26 524.02 819.15 C 521.68 819.35 519.36 818.63 517.02 818.86 C 503.06 819.73 488.84 818.65 475.48 814.35 C 470.26 812.52 464.77 810.18 461.38 805.60 C 460.10 803.92 460.13 801.74 459.99 799.74 Z" />
          <path d=" M 476.15 824.18 C 482.72 826.12 489.08 829.06 495.98 829.71 C 504.60 830.98 513.35 830.56 522.04 830.31 C 529.47 829.52 536.65 827.17 544.05 826.24 C 543.32 827.72 542.28 829.13 540.65 829.67 C 536.25 831.35 531.63 832.42 527.06 833.51 C 516.80 834.11 506.50 833.80 496.25 833.33 C 489.95 831.07 483.03 830.09 477.29 826.53 C 477.00 825.94 476.44 824.77 476.15 824.18 Z" />
          <path d=" M 476.12 832.80 C 480.83 833.92 485.27 835.95 490.02 836.96 C 499.47 839.39 509.29 839.31 518.98 839.23 C 526.13 839.03 533.54 839.15 540.27 836.37 C 541.44 835.98 544.70 834.39 544.38 836.90 C 544.99 838.55 542.87 839.28 541.87 840.09 C 536.17 842.55 530.12 844.18 524.01 845.24 C 515.36 845.54 506.69 845.31 498.05 845.13 C 490.54 843.09 482.18 842.21 476.21 836.73 C 476.16 835.41 476.14 834.10 476.12 832.80 Z" />
          <path d=" M 476.65 844.48 C 483.84 847.15 491.23 849.64 498.96 850.06 C 510.35 850.98 521.87 850.69 533.18 849.08 C 537.60 848.57 541.29 845.55 545.70 845.22 C 545.76 846.68 545.77 848.16 545.74 849.64 C 537.65 852.29 529.68 855.96 521.01 856.03 C 506.09 856.92 489.71 857.61 476.71 849.00 C 476.67 847.49 476.65 845.98 476.65 844.48 Z" />
          <path d=" M 476.12 855.80 C 480.46 857.03 484.58 858.97 488.98 860.04 C 498.06 862.65 507.60 862.52 516.96 862.31 C 526.23 862.03 535.72 860.66 543.90 856.03 C 544.74 857.42 545.51 859.75 543.50 860.57 C 538.04 863.83 532.01 866.11 526.06 868.25 C 518.71 867.59 511.40 869.21 504.06 868.40 C 495.26 867.79 485.83 866.78 478.38 861.65 C 476.24 860.43 476.12 857.98 476.12 855.80 Z" />
        </g>
</svg>